<svg width="980" height="425" viewBox="0 0 980 425" fill="none" xmlns="http://www.w3.org/2000/svg">
<g clip-path="url(#clip0_818_2)">
<path d="M883.381 175.258H308.805C306.366 175.258 304.026 176.227 302.301 177.952C300.576 179.677 299.606 182.017 299.606 184.457C299.606 186.896 300.576 189.236 302.301 190.961C304.026 192.686 306.366 193.655 308.805 193.655H325.08V413.721C325.08 416.161 326.05 418.5 327.775 420.225C329.5 421.951 331.84 422.92 334.279 422.92C336.719 422.92 339.059 421.951 340.784 420.225C342.509 418.5 343.478 416.161 343.478 413.721L343.618 193.655H804.774L847.294 413.721C847.294 416.161 848.263 418.5 849.988 420.225C851.713 421.951 854.053 422.92 856.492 422.92C858.932 422.92 861.272 421.951 862.997 420.225C864.722 418.5 865.691 416.161 865.691 413.721L868.368 193.655H883.381C885.821 193.655 888.161 192.686 889.886 190.961C891.611 189.236 892.58 186.896 892.58 184.457C892.58 182.017 891.611 179.677 889.886 177.952C888.161 176.227 885.821 175.258 883.381 175.258V175.258Z" fill="#8C8C8C"/>
<path d="M408.401 134.269V173.223H310.804C308.247 173.312 305.696 172.897 303.299 172C300.902 171.104 298.705 169.744 296.833 167.998C294.962 166.252 293.452 164.155 292.391 161.826C291.33 159.497 290.738 156.982 290.649 154.424C290.56 151.866 290.976 149.316 291.873 146.918C292.769 144.521 294.129 142.324 295.875 140.453C297.621 138.581 299.718 137.072 302.047 136.011C304.376 134.95 306.891 134.358 309.449 134.269C309.901 134.253 310.353 134.253 310.804 134.269L408.401 134.269Z" fill="#F2F2F2"/>
<path d="M410.798 172.924C410.798 173.321 410.64 173.702 410.359 173.983C410.078 174.264 409.697 174.422 409.3 174.422H309.066C303.625 174.418 298.407 172.254 294.561 168.405C290.715 164.556 288.554 159.337 288.554 153.896C288.554 148.455 290.715 143.236 294.561 139.387C298.407 135.538 303.625 133.374 309.066 133.37H409.3C409.497 133.369 409.692 133.408 409.874 133.483C410.056 133.558 410.222 133.668 410.361 133.807C410.501 133.946 410.612 134.112 410.687 134.294C410.763 134.476 410.802 134.671 410.802 134.868C410.802 135.065 410.763 135.26 410.687 135.442C410.612 135.624 410.501 135.79 410.361 135.929C410.222 136.068 410.056 136.178 409.874 136.253C409.692 136.328 409.497 136.367 409.3 136.366H309.066C304.421 136.373 299.97 138.223 296.688 141.51C293.406 144.797 291.563 149.251 291.563 153.896C291.563 158.54 293.406 162.995 296.688 166.282C299.97 169.569 304.421 171.419 309.066 171.426H409.3C409.697 171.426 410.078 171.584 410.359 171.865C410.64 172.146 410.798 172.527 410.798 172.924V172.924Z" fill="#3B82F6"/>
<path d="M408.401 143.258H303.522C303.443 143.259 303.367 143.228 303.311 143.172C303.254 143.116 303.222 143.041 303.221 142.961C303.22 142.882 303.251 142.806 303.307 142.749C303.362 142.692 303.438 142.66 303.517 142.659H408.401C408.48 142.66 408.555 142.692 408.61 142.748C408.666 142.804 408.697 142.88 408.697 142.959C408.697 143.038 408.666 143.113 408.61 143.169C408.555 143.226 408.48 143.258 408.401 143.258Z" fill="#CCCCCC"/>
<path d="M408.401 150.45H303.522C303.443 150.45 303.367 150.419 303.311 150.364C303.254 150.308 303.222 150.232 303.221 150.153C303.22 150.074 303.251 149.998 303.307 149.941C303.362 149.884 303.438 149.852 303.517 149.851H408.401C408.48 149.851 408.555 149.883 408.61 149.94C408.666 149.996 408.697 150.071 408.697 150.15C408.697 150.229 408.666 150.305 408.61 150.361C408.555 150.417 408.48 150.449 408.401 150.45Z" fill="#CCCCCC"/>
<path d="M408.401 157.642H303.522C303.443 157.642 303.367 157.611 303.311 157.555C303.254 157.5 303.222 157.424 303.221 157.345C303.22 157.265 303.251 157.189 303.307 157.132C303.362 157.076 303.438 157.043 303.517 157.042H408.401C408.48 157.043 408.555 157.075 408.61 157.131C408.666 157.187 408.697 157.263 408.697 157.342C408.697 157.421 408.666 157.497 408.61 157.553C408.555 157.609 408.48 157.641 408.401 157.642Z" fill="#CCCCCC"/>
<path d="M408.401 164.833H303.522C303.443 164.834 303.367 164.803 303.311 164.747C303.254 164.691 303.222 164.616 303.221 164.536C303.22 164.457 303.251 164.381 303.307 164.324C303.362 164.267 303.438 164.235 303.517 164.234H408.401C408.48 164.235 408.555 164.267 408.61 164.323C408.666 164.379 408.697 164.455 408.697 164.534C408.697 164.612 408.666 164.688 408.61 164.744C408.555 164.8 408.48 164.832 408.401 164.833Z" fill="#CCCCCC"/>
<path d="M390.003 93.2276V132.182H292.407C287.241 132.362 282.215 130.482 278.435 126.957C274.656 123.431 272.431 118.548 272.252 113.383C272.072 108.217 273.952 103.191 277.477 99.4116C281.003 95.6318 285.886 93.4074 291.051 93.2276C291.503 93.2119 291.955 93.2119 292.407 93.2276H390.003Z" fill="#F2F2F2"/>
<path d="M392.4 131.883C392.4 132.28 392.242 132.661 391.961 132.942C391.68 133.223 391.299 133.381 390.902 133.381H290.668C285.224 133.381 280.003 131.218 276.154 127.369C272.305 123.52 270.142 118.299 270.142 112.855C270.142 107.411 272.305 102.19 276.154 98.3407C280.003 94.4913 285.224 92.3287 290.668 92.3287H390.902C391.098 92.3287 391.293 92.3675 391.475 92.4427C391.657 92.518 391.822 92.6284 391.961 92.7675C392.1 92.9066 392.211 93.0718 392.286 93.2536C392.361 93.4354 392.4 93.6302 392.4 93.827C392.4 94.0237 392.361 94.2185 392.286 94.4003C392.211 94.5821 392.1 94.7473 391.961 94.8864C391.822 95.0255 391.657 95.1359 391.475 95.2112C391.293 95.2864 391.098 95.3252 390.902 95.3252H290.668C286.019 95.3252 281.56 97.1721 278.273 100.46C274.985 103.747 273.139 108.206 273.139 112.855C273.139 117.504 274.985 121.963 278.273 125.25C281.56 128.538 286.019 130.384 290.668 130.384H390.902C391.299 130.385 391.68 130.543 391.961 130.823C392.242 131.104 392.4 131.485 392.4 131.883Z" fill="#3F3D56"/>
<path d="M390.003 102.217H285.125C285.045 102.218 284.969 102.187 284.913 102.131C284.856 102.075 284.824 102 284.823 101.92C284.823 101.841 284.853 101.765 284.909 101.708C284.964 101.651 285.04 101.619 285.119 101.618H390.003C390.082 101.619 390.157 101.651 390.213 101.707C390.268 101.763 390.299 101.839 390.299 101.918C390.299 101.996 390.268 102.072 390.213 102.128C390.157 102.184 390.082 102.216 390.003 102.217V102.217Z" fill="#CCCCCC"/>
<path d="M390.003 109.409H285.125C285.045 109.409 284.969 109.378 284.913 109.323C284.856 109.267 284.824 109.191 284.823 109.112C284.823 109.033 284.853 108.956 284.909 108.9C284.964 108.843 285.04 108.811 285.119 108.81H390.003C390.082 108.81 390.157 108.842 390.213 108.898C390.268 108.954 390.299 109.03 390.299 109.109C390.299 109.188 390.268 109.264 390.213 109.32C390.157 109.376 390.082 109.408 390.003 109.409Z" fill="#CCCCCC"/>
<path d="M390.003 116.6H285.125C285.045 116.601 284.969 116.57 284.913 116.514C284.856 116.459 284.824 116.383 284.823 116.304C284.823 116.224 284.853 116.148 284.909 116.091C284.964 116.035 285.04 116.002 285.119 116.001H390.003C390.082 116.002 390.157 116.034 390.213 116.09C390.268 116.146 390.299 116.222 390.299 116.301C390.299 116.38 390.268 116.456 390.213 116.512C390.157 116.568 390.082 116.6 390.003 116.6Z" fill="#CCCCCC"/>
<path d="M390.003 123.792H285.125C285.045 123.792 284.969 123.761 284.913 123.706C284.856 123.65 284.824 123.574 284.823 123.495C284.823 123.416 284.853 123.34 284.909 123.283C284.964 123.226 285.04 123.194 285.119 123.193H390.003C390.082 123.194 390.157 123.225 390.213 123.282C390.268 123.338 390.299 123.413 390.299 123.492C390.299 123.571 390.268 123.647 390.213 123.703C390.157 123.759 390.082 123.791 390.003 123.792V123.792Z" fill="#CCCCCC"/>
<path d="M373.031 80.2324H328.565C328.143 80.2321 327.726 80.3289 327.348 80.5155L316.125 86.1338C315.756 86.2908 315.441 86.553 315.219 86.8877C314.998 87.2224 314.88 87.6148 314.88 88.0161C314.88 88.4174 314.998 88.8098 315.219 89.1445C315.441 89.4791 315.756 89.7413 316.125 89.8983L327.348 95.5166C327.726 95.7032 328.143 95.8001 328.565 95.7997H373.031C373.643 95.8352 374.245 95.6278 374.706 95.2225C375.167 94.8172 375.45 94.2467 375.493 93.6344V82.3977C375.45 81.7854 375.167 81.2149 374.706 80.8096C374.245 80.4044 373.643 80.197 373.031 80.2324V80.2324Z" fill="#3F3D56"/>
<path d="M375.494 82.3978V93.6345C375.45 94.2467 375.168 94.8173 374.707 95.2226C374.246 95.6279 373.644 95.8352 373.031 95.7998H364.172V80.2324H373.031C373.644 80.197 374.246 80.4044 374.707 80.8097C375.168 81.2149 375.45 81.7855 375.494 82.3978V82.3978Z" fill="#3B82F6"/>
<path d="M624.637 174.373L619.942 172.396L616.721 148.861H573.832L570.341 172.3L566.141 174.4C565.94 174.501 565.779 174.666 565.683 174.87C565.588 175.073 565.564 175.303 565.616 175.522C565.668 175.74 565.792 175.935 565.968 176.075C566.144 176.214 566.362 176.29 566.587 176.29H624.25C624.48 176.29 624.703 176.21 624.881 176.064C625.059 175.919 625.182 175.716 625.227 175.49C625.273 175.264 625.239 175.03 625.131 174.826C625.024 174.623 624.849 174.463 624.637 174.373V174.373Z" fill="#E6E6E6"/>
<path d="M700.853 151.992H490.171C489.065 151.99 488.006 151.549 487.225 150.766C486.444 149.984 486.006 148.924 486.006 147.818V118.109H705.018V147.818C705.018 148.924 704.58 149.984 703.799 150.766C703.018 151.549 701.959 151.99 700.853 151.992V151.992Z" fill="#8C8C8C"/>
<path d="M705.238 132.15H485.813V5.03168C485.815 3.69764 486.346 2.41868 487.289 1.47539C488.232 0.532095 489.511 0.0014927 490.845 0H700.206C701.54 0.00149268 702.819 0.532097 703.763 1.47539C704.706 2.41868 705.237 3.69763 705.238 5.03168L705.238 132.15Z" fill="#3F3D56"/>
<path d="M692.133 122.924H498.919C497.89 122.923 496.904 122.514 496.177 121.787C495.45 121.06 495.041 120.074 495.04 119.045V13.1054C495.041 12.0769 495.45 11.0908 496.177 10.3636C496.904 9.63631 497.89 9.22722 498.919 9.22604H692.133C693.161 9.22722 694.147 9.63631 694.874 10.3636C695.602 11.0908 696.011 12.0769 696.012 13.1054V119.045C696.011 120.074 695.602 121.06 694.874 121.787C694.147 122.514 693.161 122.923 692.133 122.924V122.924Z" fill="white"/>
<path d="M641.243 160.305C642.49 159.153 643.975 158.288 645.593 157.772C647.211 157.255 648.922 157.1 650.606 157.317C652.291 157.533 653.907 158.117 655.341 159.026C656.776 159.935 657.994 161.147 658.909 162.577L685.043 157.931L691.741 173.124L654.741 179.167C652.237 180.546 649.313 180.957 646.525 180.324C643.737 179.691 641.278 178.057 639.614 175.732C637.95 173.407 637.197 170.552 637.497 167.709C637.797 164.866 639.13 162.231 641.243 160.305V160.305Z" fill="#FFB6B6"/>
<path d="M665.439 179.704L692.685 179.365L696.134 179.318L751.567 178.62C751.567 178.62 766.62 164.259 779.727 149.473L777.89 136.185C776.098 123.144 769.629 111.198 759.686 102.57C740.913 115.114 730.026 139.944 730.026 139.944L695.656 148.165L692.218 148.987L670.862 154.09L665.439 179.704Z" fill="#3B82F6"/>
<path d="M804.913 261.38H754.056C754.056 263.559 698.461 265.328 698.461 265.328C697.235 266.251 696.117 267.311 695.13 268.486C692.162 272.025 690.54 276.499 690.55 281.119V284.277C690.552 289.511 692.632 294.531 696.333 298.232C700.035 301.933 705.054 304.013 710.288 304.015H804.913C810.147 304.011 815.165 301.93 818.866 298.229C822.566 294.528 824.647 289.51 824.652 284.277V281.119C824.645 275.886 822.563 270.869 818.863 267.169C815.162 263.469 810.146 261.387 804.913 261.38V261.38Z" fill="#505050"/>
<path d="M767.93 303.231H747.402V421.721H767.93V303.231Z" fill="#505050"/>
<path d="M688.976 421C688.976 423.218 720.083 421.858 758.456 421.858C796.828 421.858 827.935 423.218 827.935 421C827.935 418.781 796.828 401.193 758.456 401.193C720.083 401.193 688.976 418.782 688.976 421Z" fill="#505050"/>
<path d="M675.186 407.461L659.908 407.46L652.64 348.531L675.188 348.532L675.186 407.461Z" fill="#FFB6B6"/>
<path d="M679.082 422.27L629.82 422.268V421.645C629.82 416.56 631.84 411.683 635.436 408.088C639.032 404.492 643.909 402.472 648.994 402.471H648.995L679.083 402.473L679.082 422.27Z" fill="#2F2E41"/>
<path d="M630.031 407.461L614.753 407.46L607.485 348.531L630.033 348.532L630.031 407.461Z" fill="#FFB6B6"/>
<path d="M633.927 422.27L584.665 422.268V421.645C584.665 416.56 586.685 411.683 590.281 408.088C593.877 404.492 598.754 402.472 603.839 402.471H603.84L633.928 402.473L633.927 422.27Z" fill="#2F2E41"/>
<path d="M766.887 68.2002C781.558 68.2002 793.451 56.3071 793.451 41.6362C793.451 26.9653 781.558 15.0721 766.887 15.0721C752.216 15.0721 740.323 26.9653 740.323 41.6362C740.323 56.3071 752.216 68.2002 766.887 68.2002Z" fill="#FFB6B6"/>
<path d="M809.88 223.642C809.88 223.642 818.793 270.773 784.88 276.775C750.968 282.777 702.014 286.995 702.014 286.995L680.031 389.562L650.496 386.925C650.496 386.925 654.424 263.457 664.084 253.798C673.743 244.138 734.796 215.215 734.796 215.215L809.88 223.642Z" fill="#2F2E41"/>
<path d="M743.646 203.89L728.814 218.769C728.814 218.769 621.72 236.019 617.589 260.754C611.351 298.098 603.984 379.306 603.984 379.306L636.183 376.891L648.809 284.58L700.327 272.861L758.941 240.918L743.646 203.89Z" fill="#2F2E41"/>
<path d="M792.449 25.7794C789.827 20.8319 786.495 10.9716 781.202 9.14288C778.263 8.16828 775.225 7.52112 772.144 7.21316L763.147 10.6732L768.044 6.86524C767.09 6.80845 766.138 6.76202 765.185 6.72596L759.116 9.0605L762.221 6.64518C756.562 6.5871 750.721 7.1755 746.336 10.6204C742.598 13.5572 738.895 24.6822 738.296 29.3979C737.656 33.9092 737.88 38.501 738.956 42.9285L740.493 44.3901C741.031 43.1572 741.435 41.8703 741.699 40.5513C742.25 38.0869 743.309 35.7643 744.807 33.7315C746.305 31.6988 748.211 30.0005 750.402 28.7449L750.485 28.6977C753.064 27.2467 756.192 27.3136 759.149 27.42L773.19 27.9253C776.568 28.0468 780.206 28.2606 782.84 30.3797C784.514 31.9429 785.83 33.8496 786.698 35.969C788.007 38.6104 790.564 48.5731 790.564 48.5731C790.564 48.5731 792.011 46.6926 792.705 48.0923C793.817 44.4403 794.493 40.6696 794.719 36.8588C794.94 33.031 794.158 29.2118 792.449 25.7794V25.7794Z" fill="#2F2E41"/>
<path d="M885.358 53.3018C883.663 53.4134 882.014 53.8951 880.526 54.7131C879.037 55.5312 877.747 56.6655 876.744 58.0363C875.742 59.4071 875.052 60.981 874.724 62.6471C874.396 64.3133 874.437 66.0311 874.844 67.6797L853.483 83.4369L859.892 98.7536L889.746 76.0777C892.47 75.2096 894.782 73.3725 896.242 70.9143C897.702 68.4562 898.209 65.5478 897.668 62.7404C897.127 59.933 895.575 57.4215 893.306 55.6819C891.037 53.9423 888.209 53.0955 885.358 53.3018V53.3018Z" fill="#FFB6B6"/>
<path d="M881.92 85.4703L828.369 144.945C828.369 144.945 802.76 136.747 782.954 127.858L774.056 100.531C771.99 94.1909 771.109 87.5251 771.455 80.8662C798.911 73.5602 830.846 100.745 830.846 100.745L870.931 69.346L881.92 85.4703Z" fill="#3B82F6"/>
<path d="M756.964 228.035C747.41 224.735 737.531 221.322 726.875 220.041L726.417 219.986L726.544 219.543C737.575 180.812 734.821 156.036 729.416 118.82C728.266 110.792 729.743 102.608 733.627 95.4892C737.51 88.3701 743.592 82.6977 750.964 79.3188L751.029 79.2892L781.464 77.3553L781.533 77.351L803.668 83.8609C806.852 84.8044 809.639 86.7657 811.601 89.4445C813.564 92.1233 814.595 95.3717 814.535 98.692C814.295 110.931 814.803 124.596 815.342 139.063C816.55 171.519 817.799 205.08 810.711 226.855L810.674 226.969L810.58 227.043C804.064 232.35 795.902 235.217 787.499 235.151C777.564 235.151 767.425 231.649 756.964 228.035Z" fill="#3B82F6"/>
</g>
<defs>
<clipPath id="clip0_818_2">
<rect width="979.327" height="424.837" fill="white"/>
</clipPath>
</defs>
</svg>
