<svg width="980" height="425" viewBox="0 0 980 425" fill="none" xmlns="http://www.w3.org/2000/svg">
<g clip-path="url(#clip0_806_54)">
<path d="M883.381 175.258H308.805C306.366 175.258 304.026 176.227 302.301 177.952C300.576 179.677 299.606 182.017 299.606 184.457C299.606 186.896 300.576 189.236 302.301 190.961C304.026 192.686 306.366 193.656 308.805 193.656H325.08V413.721C325.08 416.161 326.05 418.501 327.775 420.226C329.5 421.951 331.84 422.92 334.279 422.92C336.719 422.92 339.059 421.951 340.784 420.226C342.509 418.501 343.478 416.161 343.478 413.721L343.618 193.656H804.774L847.294 413.721C847.294 416.161 848.263 418.501 849.988 420.226C851.713 421.951 854.053 422.92 856.492 422.92C858.932 422.92 861.272 421.951 862.997 420.226C864.722 418.501 865.691 416.161 865.691 413.721L868.368 193.656H883.381C885.821 193.656 888.161 192.686 889.886 190.961C891.611 189.236 892.58 186.896 892.58 184.457C892.58 182.017 891.611 179.677 889.886 177.952C888.161 176.227 885.821 175.258 883.381 175.258V175.258Z" fill="#CCCCCC"/>
<path d="M624.637 174.373L619.942 172.396L616.721 148.861H573.832L570.341 172.3L566.141 174.4C565.94 174.501 565.779 174.666 565.683 174.87C565.588 175.073 565.564 175.303 565.616 175.522C565.668 175.74 565.792 175.935 565.968 176.075C566.144 176.214 566.362 176.29 566.587 176.29H624.25C624.48 176.29 624.703 176.21 624.881 176.064C625.059 175.919 625.182 175.716 625.227 175.49C625.273 175.264 625.239 175.03 625.131 174.826C625.024 174.623 624.849 174.463 624.637 174.373V174.373Z" fill="#3F3D56"/>
<path d="M700.853 151.992H490.17C489.065 151.99 488.006 151.549 487.225 150.767C486.444 149.984 486.006 148.924 486.006 147.818V118.109H705.018V147.818C705.018 148.924 704.579 149.984 703.799 150.767C703.018 151.549 701.959 151.99 700.853 151.992V151.992Z" fill="#CCCCCC"/>
<path d="M705.238 132.15H485.813V5.03168C485.815 3.69764 486.346 2.41868 487.289 1.47539C488.232 0.532095 489.511 0.0014927 490.845 0H700.206C701.54 0.00149268 702.819 0.532097 703.763 1.47539C704.706 2.41868 705.237 3.69763 705.238 5.03168L705.238 132.15Z" fill="#3F3D56"/>
<path d="M692.133 122.924H498.919C497.89 122.923 496.904 122.514 496.177 121.787C495.45 121.06 495.041 120.074 495.04 119.045V13.1054C495.041 12.0769 495.45 11.0909 496.177 10.3636C496.904 9.63634 497.89 9.22725 498.919 9.22607H692.133C693.161 9.22725 694.147 9.63634 694.874 10.3636C695.602 11.0909 696.011 12.0769 696.012 13.1054V119.045C696.011 120.074 695.602 121.06 694.874 121.787C694.147 122.514 693.161 122.923 692.133 122.924V122.924Z" fill="white"/>
<path d="M641.243 160.305C642.49 159.152 643.975 158.288 645.593 157.771C647.211 157.255 648.922 157.1 650.606 157.317C652.291 157.533 653.907 158.117 655.341 159.025C656.776 159.934 657.994 161.147 658.909 162.577L685.043 157.931L691.741 173.124L654.741 179.167C652.237 180.545 649.313 180.957 646.525 180.324C643.737 179.691 641.278 178.057 639.614 175.732C637.95 173.407 637.197 170.552 637.497 167.709C637.797 164.865 639.13 162.231 641.243 160.305V160.305Z" fill="#FFB6B6"/>
<path d="M665.439 179.704L692.685 179.365L696.134 179.318L751.567 178.62C751.567 178.62 766.62 164.259 779.727 149.473L777.89 136.185C776.098 123.144 769.629 111.198 759.686 102.57C740.913 115.114 730.026 139.944 730.026 139.944L695.656 148.165L692.218 148.987L670.862 154.09L665.439 179.704Z" fill="#191622"/>
<path d="M804.913 261.38H754.056C754.056 263.559 698.462 265.328 698.462 265.328C697.235 266.251 696.118 267.311 695.13 268.486C692.162 272.025 690.54 276.499 690.55 281.118V284.277C690.552 289.511 692.632 294.531 696.333 298.232C700.035 301.933 705.054 304.013 710.289 304.015H804.913C810.147 304.011 815.165 301.93 818.866 298.229C822.566 294.528 824.648 289.51 824.652 284.277V281.118C824.645 275.886 822.563 270.869 818.863 267.169C815.163 263.469 810.146 261.387 804.913 261.38V261.38Z" fill="#232323"/>
<path d="M767.93 303.231H747.402V421.721H767.93V303.231Z" fill="#232323"/>
<path d="M688.976 420.999C688.976 423.217 720.083 421.857 758.456 421.857C796.828 421.857 827.935 423.218 827.935 420.999C827.935 418.781 796.828 401.192 758.456 401.192C720.083 401.192 688.976 418.781 688.976 420.999Z" fill="#232323"/>
<path d="M675.186 407.461L659.908 407.46L652.64 348.531L675.188 348.532L675.186 407.461Z" fill="#FFB6B6"/>
<path d="M679.082 422.27L629.82 422.268V421.645C629.82 416.56 631.84 411.683 635.436 408.087C639.032 404.492 643.909 402.471 648.994 402.471H648.995L679.083 402.472L679.082 422.27Z" fill="#2F2E41"/>
<path d="M630.031 407.461L614.753 407.46L607.485 348.531L630.033 348.532L630.031 407.461Z" fill="#FFB6B6"/>
<path d="M633.927 422.27L584.665 422.268V421.645C584.665 416.56 586.685 411.683 590.281 408.087C593.877 404.492 598.754 402.471 603.839 402.471H603.84L633.928 402.472L633.927 422.27Z" fill="#2F2E41"/>
<path d="M766.886 68.2003C781.557 68.2003 793.451 56.3072 793.451 41.6363C793.451 26.9654 781.557 15.0723 766.886 15.0723C752.216 15.0723 740.323 26.9654 740.323 41.6363C740.323 56.3072 752.216 68.2003 766.886 68.2003Z" fill="#FFB6B6"/>
<path d="M809.88 223.642C809.88 223.642 818.793 270.773 784.88 276.775C750.968 282.777 702.014 286.995 702.014 286.995L680.031 389.561L650.496 386.925C650.496 386.925 654.424 263.457 664.084 253.798C673.743 244.138 734.796 215.215 734.796 215.215L809.88 223.642Z" fill="#2F2E41"/>
<path d="M743.646 203.89L728.814 218.769C728.814 218.769 621.72 236.019 617.589 260.754C611.351 298.098 603.984 379.306 603.984 379.306L636.183 376.891L648.809 284.58L700.327 272.861L758.941 240.918L743.646 203.89Z" fill="#2F2E41"/>
<path d="M792.449 25.7796C789.827 20.8321 786.495 10.9718 781.202 9.14303C778.263 8.16843 775.225 7.52127 772.144 7.21331L763.147 10.6734L768.044 6.8654C767.09 6.8086 766.138 6.76217 765.185 6.72611L759.116 9.06065L762.221 6.64533C756.562 6.58725 750.721 7.17565 746.336 10.6205C742.598 13.5573 738.895 24.6824 738.296 29.3981C737.656 33.9093 737.88 38.5011 738.956 42.9286L740.493 44.3903C741.031 43.1573 741.435 41.8704 741.699 40.5514C742.25 38.087 743.309 35.7644 744.807 33.7317C746.305 31.6989 748.211 30.0006 750.402 28.745L750.485 28.6978C753.064 27.2468 756.192 27.3137 759.149 27.4201L773.19 27.9254C776.568 28.047 780.206 28.2607 782.84 30.3798C784.514 31.9431 785.83 33.8497 786.698 35.9691C788.007 38.6105 790.564 48.5733 790.564 48.5733C790.564 48.5733 792.011 46.6927 792.705 48.0924C793.817 44.4405 794.493 40.6697 794.719 36.8589C794.94 33.0311 794.158 29.2119 792.449 25.7796V25.7796Z" fill="#2F2E41"/>
<path d="M885.358 53.302C883.663 53.4135 882.014 53.8953 880.526 54.7133C879.037 55.5313 877.747 56.6657 876.744 58.0365C875.742 59.4072 875.052 60.9812 874.724 62.6473C874.396 64.3134 874.437 66.0313 874.844 67.6798L853.483 83.4371L859.892 98.7538L889.746 76.0779C892.47 75.2098 894.782 73.3726 896.242 70.9145C897.702 68.4563 898.209 65.548 897.668 62.7406C897.127 59.9331 895.575 57.4217 893.306 55.6821C891.037 53.9425 888.209 53.0956 885.358 53.302V53.302Z" fill="#FFB6B6"/>
<path d="M881.92 85.4705L828.369 144.945C828.369 144.945 802.759 136.747 782.954 127.859L774.056 100.531C771.99 94.191 771.108 87.5252 771.455 80.8663C798.911 73.5603 830.846 100.745 830.846 100.745L870.931 69.3462L881.92 85.4705Z" fill="#191622"/>
<path d="M756.964 228.035C747.41 224.735 737.531 221.322 726.875 220.041L726.417 219.986L726.544 219.543C737.575 180.812 734.821 156.036 729.416 118.82C728.266 110.792 729.743 102.608 733.627 95.4892C737.51 88.3701 743.592 82.6977 750.964 79.3188L751.029 79.2892L781.464 77.3553L781.533 77.3511L803.668 83.861C806.852 84.8044 809.639 86.7658 811.601 89.4445C813.564 92.1233 814.595 95.3717 814.535 98.6921C814.295 110.931 814.803 124.596 815.342 139.063C816.55 171.519 817.799 205.08 810.711 226.855L810.674 226.969L810.58 227.043C804.064 232.35 795.902 235.217 787.499 235.151C777.564 235.151 767.425 231.649 756.964 228.035Z" fill="#191622"/>
</g>
<defs>
<clipPath id="clip0_806_54">
<rect width="979.327" height="424.837" fill="white"/>
</clipPath>
</defs>
</svg>
