<svg width="395" height="110" viewBox="0 0 395 110" fill="none" xmlns="http://www.w3.org/2000/svg">
<path d="M45.1329 69.4518L24.3623 58.2976V52.116L45.1329 41.0071V48.2846L30.6447 55.128L45.1329 62.2287V69.4518Z" fill="black"/>
<path d="M47.0557 74.3551L54.5588 35.6423H58.9259L51.3385 74.3551H47.0557Z" fill="black"/>
<path d="M60.8457 69.4824V62.2525L75.3512 55.205L60.8457 48.2324V41.0569L81.637 52.1669V58.2976L60.8457 69.4824Z" fill="black"/>
<path d="M52.9988 101.497L12 78.2501V31.751L52.9988 8.50317L94 31.7522V78.2467L52.9988 101.497ZM16.1594 75.8896L52.9988 96.7793L89.8406 75.8896V34.1104L52.9988 13.2196L16.1594 34.1092V75.8896Z" fill="black"/>
<path d="M158.176 32.712V77H152.352V43.976L137.632 77H133.536L118.752 43.912V77H112.928V32.712H119.2L135.584 69.32L151.968 32.712H158.176ZM165.877 59.336C165.877 55.752 166.602 52.616 168.053 49.928C169.504 47.1973 171.488 45.0853 174.005 43.592C176.565 42.0987 179.402 41.352 182.517 41.352C185.589 41.352 188.256 42.0133 190.517 43.336C192.778 44.6587 194.464 46.3227 195.573 48.328V41.928H201.461V77H195.573V70.472C194.421 72.52 192.693 74.2267 190.389 75.592C188.128 76.9147 185.482 77.576 182.453 77.576C179.338 77.576 176.522 76.808 174.005 75.272C171.488 73.736 169.504 71.5813 168.053 68.808C166.602 66.0347 165.877 62.8773 165.877 59.336ZM195.573 59.4C195.573 56.7547 195.04 54.4507 193.973 52.488C192.906 50.5253 191.456 49.032 189.621 48.008C187.829 46.9413 185.845 46.408 183.669 46.408C181.493 46.408 179.509 46.92 177.717 47.944C175.925 48.968 174.496 50.4613 173.429 52.424C172.362 54.3867 171.829 56.6907 171.829 59.336C171.829 62.024 172.362 64.3707 173.429 66.376C174.496 68.3387 175.925 69.8533 177.717 70.92C179.509 71.944 181.493 72.456 183.669 72.456C185.845 72.456 187.829 71.944 189.621 70.92C191.456 69.8533 192.906 68.3387 193.973 66.376C195.04 64.3707 195.573 62.0453 195.573 59.4ZM242.407 41.928V77H236.583V71.816C235.474 73.608 233.916 75.016 231.911 76.04C229.948 77.0213 227.772 77.512 225.383 77.512C222.652 77.512 220.199 76.9573 218.023 75.848C215.847 74.696 214.119 72.9893 212.839 70.728C211.602 68.4667 210.983 65.7147 210.983 62.472V41.928H216.743V61.704C216.743 65.16 217.618 67.8267 219.367 69.704C221.116 71.5387 223.506 72.456 226.535 72.456C229.65 72.456 232.103 71.496 233.895 69.576C235.687 67.656 236.583 64.8613 236.583 61.192V41.928H242.407ZM258.065 47.624C259.089 45.6187 260.539 44.0613 262.417 42.952C264.337 41.8427 266.662 41.288 269.393 41.288V47.304H267.857C261.329 47.304 258.065 50.8453 258.065 57.928V77H252.241V41.928H258.065V47.624ZM281.94 41.928V77H276.116V41.928H281.94ZM285.268 32.008L271.636 39.304V34.952L285.268 26.952V32.008ZM289.69 59.4C289.69 55.7733 290.415 52.616 291.866 49.928C293.316 47.1973 295.322 45.0853 297.882 43.592C300.484 42.0987 303.45 41.352 306.778 41.352C311.087 41.352 314.628 42.3973 317.402 44.488C320.218 46.5787 322.074 49.48 322.97 53.192H316.698C316.1 51.0587 314.927 49.3733 313.178 48.136C311.471 46.8987 309.338 46.28 306.778 46.28C303.45 46.28 300.762 47.432 298.714 49.736C296.666 51.9973 295.642 55.2187 295.642 59.4C295.642 63.624 296.666 66.888 298.714 69.192C300.762 71.496 303.45 72.648 306.778 72.648C309.338 72.648 311.471 72.0507 313.178 70.856C314.884 69.6613 316.058 67.9547 316.698 65.736H322.97C322.031 69.32 320.154 72.2 317.338 74.376C314.522 76.5093 311.002 77.576 306.778 77.576C303.45 77.576 300.484 76.8293 297.882 75.336C295.322 73.8427 293.316 71.7307 291.866 69C290.415 66.2693 289.69 63.0693 289.69 59.4ZM333.749 36.232C332.639 36.232 331.701 35.848 330.933 35.08C330.165 34.312 329.781 33.3733 329.781 32.264C329.781 31.1547 330.165 30.216 330.933 29.448C331.701 28.68 332.639 28.296 333.749 28.296C334.815 28.296 335.711 28.68 336.437 29.448C337.205 30.216 337.589 31.1547 337.589 32.264C337.589 33.3733 337.205 34.312 336.437 35.08C335.711 35.848 334.815 36.232 333.749 36.232ZM336.565 41.928V77H330.741V41.928H336.565ZM361.787 77.576C358.501 77.576 355.515 76.8293 352.827 75.336C350.181 73.8427 348.091 71.7307 346.555 69C345.061 66.2267 344.315 63.0267 344.315 59.4C344.315 55.816 345.083 52.6587 346.619 49.928C348.197 47.1547 350.331 45.0427 353.019 43.592C355.707 42.0987 358.715 41.352 362.043 41.352C365.371 41.352 368.379 42.0987 371.067 43.592C373.755 45.0427 375.867 47.1333 377.403 49.864C378.981 52.5947 379.771 55.7733 379.771 59.4C379.771 63.0267 378.96 66.2267 377.339 69C375.76 71.7307 373.605 73.8427 370.875 75.336C368.144 76.8293 365.115 77.576 361.787 77.576ZM361.787 72.456C363.877 72.456 365.84 71.9653 367.675 70.984C369.509 70.0027 370.981 68.5307 372.091 66.568C373.243 64.6053 373.819 62.216 373.819 59.4C373.819 56.584 373.264 54.1947 372.155 52.232C371.045 50.2693 369.595 48.8187 367.803 47.88C366.011 46.8987 364.069 46.408 361.979 46.408C359.845 46.408 357.883 46.8987 356.091 47.88C354.341 48.8187 352.933 50.2693 351.867 52.232C350.8 54.1947 350.267 56.584 350.267 59.4C350.267 62.2587 350.779 64.6693 351.803 66.632C352.869 68.5947 354.277 70.0667 356.027 71.048C357.776 71.9867 359.696 72.456 361.787 72.456Z" fill="black"/>
</svg>
